# xmcd
#
# Track frame offsets:
#	150
#	10657
#	22316
#	46263
#	62430
#	74601
#	93090
#	111184
#	130129
#	143299
#	157623
#	175553
#	201492
#	220726
#	230432
#	244894
#	263890
#	280270
#	295515
#	309733
#	322539
#	342263
#
# Disc length: 4719 seconds
#
# Revision: 0
# Processed by: cddbd v1.5.1PL0 Copyright (c) Steve Scherf et al.
# Submitted via: MusicWizard 7.1.1b
#
DISCID=2c126d16
DTITLE=Hank Williams Jr. - Greatest Hits
DYEAR=2001
DGENRE=Country
TTITLE0=The American Dream
TTITLE1=Gonna Go Huntin' Tonight
TTITLE2=La Grange
TTITLE3=Leave Them Boys Alone
TTITLE4=I Really Like Girls
TTITLE5=Blue Jean Blues
TTITLE6=Family Tradition
TTITLE7=In The Arms Of Cocaine
TTITLE8=The Nashville Scene
TTITLE9=Lawjers, Guns And Money
TTITLE10=All My Rowdy Friends Have Settled Down
TTITLE11=Outlaw's Reward
TTITLE12=A Countryboy Can Survive
TTITLE13=The Coalition To Ban Coalitions
TTITLE14=Rambling In My Shoes
TTITLE15=The Pressure Is On
TTITLE16=Weatherman
TTITLE17=Ballad Of Hank Williams
TTITLE18=Whiskey Bent And Hell Bound
TTITLE19=Women I've Never Had
TTITLE20=Kaw Liga
TTITLE21=Dixie On My Mind
EXTD=(c)1982 Warner Bros - CURB Records\nKatalog: CD 60193\nupc 07588274712
EXTT0=
EXTT1=
EXTT2=
EXTT3=
EXTT4=
EXTT5=
EXTT6=
EXTT7=
EXTT8=
EXTT9=
EXTT10=
EXTT11=
EXTT12=
EXTT13=
EXTT14=
EXTT15=
EXTT16=
EXTT17=
EXTT18=
EXTT19=
EXTT20=
EXTT21=
PLAYORDER=
